<?xml version="1.0" encoding="utf-8"?>
<svg version="1.1" id="Capa_1" xmlns="http://www.w3.org/2000/svg" x="0px" y="0px" viewBox="0 0 450.783 137.1" style="enable-background:new 0 0 524 544;">
  <style type="text/css">.st0 { fill: rgb(1, 31, 53); }</style>
  <path class="st0" d="M 66.691 124.541 C 77.021 124.564 87.164 121.788 96.049 116.517 C 98.092 119.079 105.676 124.541 109.197 124.541 C 112.148 124.541 114.98 123.367 117.066 121.277 C 119.153 119.187 120.32 116.351 120.314 113.401 C 120.314 110.323 114.627 103.743 112.609 101.733 C 120.227 91.723 124.346 79.487 124.323 66.909 C 124.323 35.082 98.522 9.28 66.695 9.28 C 66.695 9.28 66.691 9.28 66.691 9.28 C 34.864 9.28 9.062 35.082 9.062 66.909 C 9.062 98.74 34.864 124.541 66.691 124.541 Z M 31.679 66.357 C 31.679 49.333 43.926 34.772 60.699 31.858 L 66.691 21.48 L 72.682 31.858 C 89.459 34.772 101.706 49.329 101.71 66.357 C 101.713 70.477 100.989 74.561 99.569 78.428 L 106.037 89.627 L 92.846 89.627 C 86.217 97.114 76.693 101.398 66.691 101.395 C 56.688 101.398 47.166 97.114 40.536 89.627 L 27.352 89.627 L 33.819 78.428 C 32.4 74.561 31.675 70.477 31.679 66.357 Z" style=""/>
  <path class="st0" d="M 84.084 64.191 C 83.604 60.481 83.126 56.77 82.646 53.066 C 82.599 52.042 82.322 51.045 81.831 50.143 C 81.129 49.159 80.141 48.414 79.002 48.004 C 75.793 46.623 72.363 46.105 68.899 45.799 C 66.114 45.632 63.322 45.866 60.605 46.486 C 58.573 46.821 56.602 47.444 54.747 48.343 C 53.128 49.099 52.04 50.665 51.896 52.446 C 51.586 55.181 51.19 57.9 50.827 60.636 C 50.584 62.023 50.426 63.421 50.35 64.823 C 50.292 70.332 50.35 75.84 50.35 81.35 L 50.35 81.884 L 53.179 81.884 L 53.179 82.417 C 53.179 83.224 53.179 84.02 53.215 84.828 C 53.247 86.104 54.307 87.108 55.579 87.079 C 56.854 87.141 57.942 86.164 58.018 84.892 C 58.083 84.204 58.042 83.502 58.05 82.805 L 58.05 81.879 L 76.434 81.879 L 76.434 84.874 C 76.488 86.06 77.432 87.011 78.617 87.079 C 79.775 87.227 80.859 86.495 81.157 85.367 C 81.241 84.992 81.277 84.608 81.269 84.222 L 81.269 81.869 L 84.087 81.869 L 84.087 64.707 C 84.098 64.542 84.094 64.365 84.084 64.191 Z M 55.539 76.385 C 54.916 76.367 54.324 76.096 53.9 75.636 C 53.474 75.175 53.254 74.566 53.287 73.938 C 53.341 72.674 54.404 71.687 55.672 71.726 C 56.959 71.766 57.971 72.836 57.938 74.122 C 57.888 75.401 56.821 76.406 55.539 76.385 Z M 67.236 65.759 L 55.078 65.759 C 53.474 65.759 53.154 65.075 53.355 63.706 C 53.777 60.783 54.17 57.862 54.583 54.931 C 54.617 54.72 54.663 54.507 54.718 54.295 C 54.851 53.566 55.474 53.03 56.217 53.004 C 56.447 52.989 56.682 52.989 56.912 53.004 L 78.034 53.004 C 78.902 52.922 79.673 53.559 79.756 54.427 C 80.012 55.872 80.209 57.331 80.415 58.78 C 80.657 60.466 80.888 62.149 81.114 63.835 C 81.147 64.066 81.157 64.296 81.15 64.53 C 81.164 64.844 81.053 65.154 80.834 65.381 C 80.617 65.608 80.314 65.738 79.998 65.734 L 79.306 65.734 L 67.236 65.759 Z M 78.863 76.385 L 78.858 76.389 C 77.572 76.381 76.534 75.343 76.521 74.057 C 76.521 72.771 77.558 71.73 78.841 71.719 C 79.457 71.716 80.051 71.96 80.491 72.397 C 80.931 72.832 81.176 73.423 81.179 74.042 C 81.179 75.326 80.145 76.371 78.863 76.385 Z" style=""/>
  <path class="st0" d="M 161.602 12.162 C 159.142 12.162 154.692 13.852 152.692 17.382 L 139.942 40.432 C 139.022 42.432 138.102 44.422 138.102 46.582 C 138.102 52.112 143.022 56.722 148.552 56.722 C 151.012 56.722 155.462 55.032 157.312 51.502 L 170.222 28.452 C 171.142 26.452 172.222 24.462 172.222 22.302 C 172.202 16.772 167.132 12.162 161.602 12.162 Z"/>
  <path class="st0" d="M 217.532 40.742 C 210.622 40.742 206.162 43.812 202.012 49.962 L 201.702 49.962 C 201.702 42.892 196.782 40.742 190.952 40.742 C 185.422 40.742 179.582 44.432 179.582 51.802 L 179.582 112.032 C 179.582 119.402 184.192 124.322 190.642 124.322 C 197.092 124.322 201.702 119.402 201.702 112.032 L 201.702 78.072 C 201.702 69.312 208.462 66.392 215.072 63.322 C 221.682 60.252 228.282 59.792 228.282 52.572 C 228.282 44.582 222.912 40.742 217.532 40.742 Z"/>
  <path class="st0" d="M 292.812 40.742 C 286.362 40.742 281.752 45.662 281.752 53.032 L 281.752 92.522 C 281.752 101.742 274.842 106.812 267.462 106.812 C 260.082 106.812 253.172 101.742 253.172 92.522 L 253.172 53.032 C 253.172 45.652 248.562 40.742 242.112 40.742 C 235.662 40.742 231.052 45.662 231.052 53.032 L 231.052 92.982 C 231.052 112.652 244.112 125.242 267.462 125.242 C 290.812 125.242 303.872 112.642 303.872 92.982 L 303.872 53.032 C 303.882 45.652 299.272 40.742 292.812 40.742 Z"/>
  <path class="st0" d="M 350.282 41.662 L 343.982 41.662 L 343.982 28.452 C 343.982 21.072 339.372 16.162 332.922 16.162 C 326.472 16.162 321.862 21.082 321.862 28.452 L 321.862 41.662 L 316.942 41.662 C 311.412 41.662 307.262 45.812 307.262 51.342 C 307.262 57.332 310.952 61.022 316.942 61.022 L 321.862 61.022 L 321.862 112.032 C 321.862 119.402 326.472 124.322 332.922 124.322 C 339.372 124.322 343.982 119.402 343.982 112.032 L 343.982 61.022 L 350.282 61.022 C 355.972 61.022 360.882 58.252 360.882 51.342 C 360.882 44.272 355.962 41.662 350.282 41.662 Z"/>
  <path class="st0" d="M 426.952 40.742 C 421.572 40.742 416.962 44.582 416.352 49.962 C 411.432 43.052 403.442 39.822 395.302 39.822 C 375.022 39.822 358.732 58.412 358.732 82.692 C 358.732 107.582 374.562 125.252 395.302 125.252 C 403.752 125.252 410.662 121.722 416.352 114.962 C 417.892 120.802 420.502 124.332 426.952 124.332 C 437.552 124.332 437.552 115.572 437.552 109.892 L 437.552 55.192 C 437.552 49.502 437.552 40.742 426.952 40.742 Z M 398.372 104.962 C 386.392 104.962 380.862 93.282 380.862 82.682 C 380.862 72.082 386.242 60.102 398.372 60.102 C 410.052 60.102 415.422 72.082 415.422 82.682 C 415.422 93.282 409.892 104.962 398.372 104.962 Z"/>
</svg>